<svg xmlns="http://www.w3.org/2000/svg" viewBox="0 0 512 512" id="map"><path fill="#f2ddd4" d="M416.13 442H107.38c-22.66 0-41-12.59-41-28.12V149.8c0-5.9 2.69-11.64 7.72-16.42 19.62-18.66 74-61.72 164.77-67.89 81.49-5.54 162 20.75 210.69 67.94 4.93 4.78 7.61 10.48 7.61 16.33v264.1c-.02 15.53-18.38 28.14-41.04 28.14Z"></path><path fill="#739e71" d="M409.47 364.11s5.07-28.44-8.1-38.53-12.08 22.8 8.1 38.53zM426.79 341s5.07-28.43-8.1-38.53-12.08 22.83 8.1 38.53zm14.64-30.58s5.06-28.44-8.11-38.54-12.07 22.8 8.11 38.54z"></path><path fill="#739e71" d="M425.87 341.29s17.41-23.05 33.76-20.26-8.5 24.36-33.76 20.26zm-18.03 23.81s20.8-20 36.52-14.72-12.22 22.72-36.52 14.72zm32.97-54.41s11.66-26.43 28.22-27.46-2.69 25.66-28.22 27.46z"></path><path fill="#427c54" d="M379 386.73a1.52 1.52 0 0 1-1.06-.89 1.56 1.56 0 0 1 .8-2c35.62-15.43 53.32-51.39 61.9-78.85a236 236 0 0 0 10.2-56.65 1.55 1.55 0 1 1 3.1.09 240 240 0 0 1-10.34 57.49C431 346.14 409 374.07 380 386.65a1.52 1.52 0 0 1-1 .08Z"></path><path fill="#524b92" d="M458.75 236.7a.41.41 0 0 1-.3-.42l2-22.19a.38.38 0 0 1 .42-.35.4.4 0 0 1 .35.42l-2 22.19a.38.38 0 0 1-.42.35Z"></path><circle cx="460.94" cy="213.2" r="2.29" fill="#7d6fdb"></circle><path fill="#524b92" d="M452.53 240.51a.38.38 0 0 1-.29-.32l-3.35-22a.39.39 0 0 1 .33-.44.39.39 0 0 1 .44.33l3.35 22a.4.4 0 0 1-.33.44Z"></path><circle cx="449.16" cy="217.18" r="2.29" fill="#7d6fdb"></circle><path fill="#524b92" d="M464.19 237.45h-.08a.39.39 0 0 1-.17-.52L474 217a.38.38 0 0 1 .52-.17.39.39 0 0 1 .17.52l-10.07 19.88a.4.4 0 0 1-.43.22Z"></path><circle cx="474.79" cy="216.38" r="2.29" fill="#7d6fdb"></circle><path fill="#7d6fdb" d="M457.12 233.5c5.48-6.88 11.09-11 14.18-9.55a3.93 3.93 0 0 1 1.81 1.91c1.71 3.88-4.28 9.6-4.28 9.6s11.15-8 11.76.74-20.87 22-31.21 19.33c-13.37-3.44-21.25-21-17.91-24.92 2-2.31 8.18-.28 13.21 1.84 0-5.14 1.26-9.49 3.39-10 2.44-.65 6.58 3.55 9.05 11.05Z"></path><path fill="#739e71" d="M91.25 329s1.36-36 20.07-44.8S120 315.16 91.25 329zm-14.99-32.71s1.36-36 20.07-44.8 8.67 30.97-20.07 44.8zm-9.73-41.18s1.36-36 20.08-44.8 8.68 30.98-20.08 44.8z"></path><path fill="#739e71" d="M77.31 296.85s-15.1-32.69-35.77-33.62 3.92 31.93 35.77 33.62zM93 330.62s-20-29.92-40.6-27.6 8.85 30.92 40.6 27.6zm-25.79-75.01S60 220.33 40.1 214.68s-3.51 31.97 27.11 40.93z"></path><path fill="#427c54" d="M122.42 364.63a1.94 1.94 0 0 0 1.09-3.51C84.2 332.9 72.16 284.39 69 248.67A294.36 294.36 0 0 1 71.55 177a2 2 0 0 0-1.55-2.31 1.92 1.92 0 0 0-2.25 1.54A298.77 298.77 0 0 0 65.12 249c4.67 52.38 24.08 92.24 56.13 115.26a2 2 0 0 0 1.17.37Z"></path><path fill="#524b92" d="M65 160.71a.48.48 0 0 0 .47-.42l3.45-27.57a.48.48 0 1 0-1-.12l-3.45 27.57a.48.48 0 0 0 .42.54Z"></path><circle cx="68.5" cy="131.51" r="2.85" fill="#7d6fdb"></circle><path fill="#524b92" d="M71.51 167a.47.47 0 0 0 .44-.31l9.92-25.95a.48.48 0 0 0-.28-.62.49.49 0 0 0-.63.28l-9.91 25.95a.48.48 0 0 0 .28.62.29.29 0 0 0 .18.03Z"></path><circle cx="81.8" cy="139.48" r="2.85" fill="#7d6fdb"></circle><path fill="#524b92" d="M58.12 160.19h.11a.47.47 0 0 0 .34-.59l-7-26.88a.48.48 0 0 0-.93.24l7 26.89a.49.49 0 0 0 .48.34Z"></path><circle cx="50.78" cy="131.71" r="2.85" fill="#7d6fdb"></circle><path fill="#7d6fdb" d="M67.78 157.25C62.92 147.41 57.17 141 53 141.86a4.82 4.82 0 0 0-2.71 1.85C47.21 148 53 156.54 53 156.54s-11.46-12.69-14.52-2.22 19.61 32.32 32.9 31.82c17.2-.65 31.45-20 28.42-25.62-1.8-3.33-9.9-2.52-16.59-1.26 1.39-6.25 1-11.89-1.47-13.11-2.81-1.4-8.97 2.63-13.96 11.1Z"></path><path fill="#9de595" d="M98.41 199.67 271 219.27a1.54 1.54 0 0 0 .43 0l145.32-30.86a1.32 1.32 0 0 1 1.59 1.29V394a1.32 1.32 0 0 1-1.13 1.3l-138.04 19.83a.82.82 0 0 1-.27 0l-189.51-11.4a1.3 1.3 0 0 1-1.23-1.37L97 200.92a1.32 1.32 0 0 1 1.41-1.25Z"></path><path fill="#7cb779" d="m111.8 210.84 157.71 17.91a1.59 1.59 0 0 0 .38 0l132.77-28.19a1.2 1.2 0 0 1 1.45 1.17v186.61a1.19 1.19 0 0 1-1 1.18l-126.18 18.16a.7.7 0 0 1-.25 0l-173.13-10.41a1.2 1.2 0 0 1-1.12-1.25l8-184a1.22 1.22 0 0 1 1.37-1.18Z"></path><path fill="#8ad184" d="M143 225c1.23 9.82 2.15 15.35 12.89 19.34s5.21 6.44 13.19 16.26 25.47 9.21 24.55 1.84-3.07-18.1 4.3-18.1 10.43-4.61 11.35-8.29 4.61-5.22 11.36-5.83c2.27-.21 4.09-2.89 5.5-6.34l-90.53-10.28c3.39 2.63 6.81 6.51 7.39 11.4zm138.43 154.62c-3-17.71 17.05-27.74 11.81-41.43-3.6-9.41-14.33-8-17.95-19.33-3.07-9.65 2.58-17.16-1.84-20.87s-11.47 1.87-16.57-2.61c-3-2.64-1.78-5.65-5.06-8.44-4-3.37-9.89-2.46-12-2.15-14.82 2.26-17.6 17.21-26.21 16.57s-8.58-16.11-21.42-19.55a24.44 24.44 0 0 0-17.71 2.52c-6.48 3.79-6.66 8.65-11 9.05-4.68.44-7.13-3.79-16.16-11.58-10.74-9.28-19.63-7.75-20.86 5.45 0 0-9.82 6-5.22 14.5s-.92 7.9-1.23 14.65 4.61 4.3 11.66 11.36 1.85 11.66 3.38 20.56 11.35 6.13 22.71 4.29 2.76 12.89 18.1 20.26 7.11 10.91 5.83 23.62a13.93 13.93 0 0 0 .54 5.51l53.89 3.25c-5-5.2-8.15-10.26-5.94-13.36 6.14-8.59 4.6-16 0-22.71s5.83-13.5 11-7.36 2.15 22.4 10.43 29.15c4.5 3.67 4.84 10 6.86 15.63l18.16 1.09a.7.7 0 0 0 .25 0l21.87-3.15c-1.43-6.87-15.05-11.54-17.32-24.92zm121.23-179.08-124.84 26.51a22 22 0 0 0 8.06 12.17c15.65 11.51-.46 10.59 7.36 18.88s18.88-2 20.72 9.82-3.23 22.86 12 22.86-9.67 12.43-7.83 27.62 14.27-10.59 23.94 0-1.39 16.11 16.57 20.25 16.57-14.27 25.77-8.75c5.4 3.24 12.07 9.33 19.73 12.88V201.71a1.2 1.2 0 0 0-1.48-1.17z"></path><path fill="#9de595" d="M150.09 309.34s-3.69 8.29 8 17.49 2.45 19.64 13.8 24.25 23.94 4.6 27.93 15-.44 19 9.6 19.95 3.29-19.95 9.43-27 11-8.29 21.78-2.15 2.91 16.88 12.66 19.95 7.29 14.72 14 15.95 10.15-13.51 9.72-24.26 11.46-15.67 5-25.77-20.25-6.43-22.4-19.93.92-19.69-15-18.75-36.21 12.61-43.27 3.71-4.29-16.88-15.65-12.28-13.5 11-20.56 8.57-15.03-1.61-15.04 5.27zm1.15-89.91s0 6.21 4.6 9.67c6.68 5 3.79 9.8 6.44 11.64 3.64 2.51 5.64.35 8.29 2.86 3.71 3.5 1.59 9.44 5.52 11.5a3.2 3.2 0 0 0 2.7.49c2.57-1.07 1.73-8.13 5.59-11.07 4.83-3.69 9.44-1.45 11.05-6.94s3.91-4.34 10.12-7.1 4.84-6.22-1.61-7.14-53.2-7.17-52.7-3.91zm139.24 8.9s-.7 7.36 8.32 12.43 2.73 9.36 10.09 12.43 13.2-1.08 16.88 6.75 2.46 17.64 11.05 18.1 8.13 6.75 5.06 14-.76 9.17 6.75 12.1 1.08 13.68 6.91 17.82 12-1.45 18.87-4.71 10.43 6.82 16.59 7.75 8.13-2 8.13-2 .77-110.94-2.3-113.7-31.91 2.74-33.75 9.2 3.68 16-4 16.58-10.44-.52-18.11 2-10.13-3.88-17.49-7.87-28.86-6.1-33-.88z"></path><path fill="#c4ffbb" d="M272.65 259.83h-.06l-163.44-18.6a.5.5 0 0 1-.44-.55.52.52 0 0 1 .55-.44l163.37 18.58 130.83-27.61a.5.5 0 0 1 .59.39.49.49 0 0 1-.38.59l-130.92 27.63zm1.11 27.6h-.06L108 267.37a.5.5 0 0 1-.43-.56.5.5 0 0 1 .56-.43l165.61 20L404 258.84a.52.52 0 0 1 .6.39.51.51 0 0 1-.39.59l-130.35 27.6zm1.53 31.93h-.06l-168.61-20.23a.5.5 0 0 1-.44-.55.51.51 0 0 1 .56-.44l168.53 20.21L404 293.7a.5.5 0 1 1 .19 1l-128.81 24.65zm1 31.28h-.05l-171.06-18.37a.5.5 0 1 1 .11-1l171 18.37 127.2-25a.49.49 0 0 1 .58.4.48.48 0 0 1-.39.58l-127.27 25zm1.53 30.7h-.05l-174-16.55a.51.51 0 0 1-.45-.55.53.53 0 0 1 .55-.45l173.93 16.55 126.2-27.6a.5.5 0 0 1 .6.38.49.49 0 0 1-.39.59l-126.29 27.62z"></path><path fill="#6f966c" d="M278.9 416.14a1 1 0 0 1-1-1l-7.85-195.87a1 1 0 1 1 2-.08l7.85 195.91a1 1 0 0 1-1 1Z"></path><path fill="#c4ffbb" d="M135.64 399.7a.5.5 0 0 1-.48-.52l6-185a.5.5 0 0 1 1 0l-6 185a.51.51 0 0 1-.52.52zm39.61 2.38a.5.5 0 0 1-.5-.5V218.5a.5.5 0 0 1 1 0v183.08a.5.5 0 0 1-.5.5zm34.31 2.07a.5.5 0 0 1-.5-.5l-.16-181.73a.5.5 0 0 1 .5-.5.5.5 0 0 1 .5.5l.16 181.73a.5.5 0 0 1-.5.5zm33.84 2.04a.49.49 0 0 1-.5-.49l-3.75-180.33a.49.49 0 0 1 .49-.51.48.48 0 0 1 .51.49l3.75 180.33a.52.52 0 0 1-.49.51zm66.26-2.04a.5.5 0 0 1-.5-.47L298.3 222a.52.52 0 0 1 .47-.53.48.48 0 0 1 .53.47l10.86 181.73a.5.5 0 0 1-.47.53zM341 399a.52.52 0 0 1-.5-.46l-17.22-180.91a.5.5 0 0 1 .45-.54.54.54 0 0 1 .55.45l17.18 180.88a.49.49 0 0 1-.45.54zm27.6-4a.51.51 0 0 1-.5-.46l-17.21-183.07a.5.5 0 0 1 1-.09l17.21 183.06a.51.51 0 0 1-.45.55zm20.28-2.93a.5.5 0 0 1-.5-.48l-9.25-186.25a.51.51 0 0 1 .47-.53.49.49 0 0 1 .53.48l9.25 186.25a.51.51 0 0 1-.48.53z"></path><path fill="#7d6fdb" d="m187.21 188 29.54 15-29.46 10.13-.08-25.13Z"></path><rect width="3.38" height="61.68" x="185.91" y="186.75" fill="#7d6fdb" rx="1.64"></rect><path fill="#7d6fdb" d="m370.14 229.72 29.53 15-29.46 10.13q-.03-12.55-.07-25.13Z"></path><rect width="3.38" height="61.68" x="368.83" y="228.49" fill="#7d6fdb" rx="1.64"></rect><path fill="#7d6fdb" d="m216.06 280.43 29.54 15-29.46 10.13q-.03-12.56-.08-25.13Z"></path><rect width="3.38" height="61.68" x="214.76" y="279.2" fill="#7d6fdb" rx="1.64"></rect><rect width="157.92" height="116.34" x="225.27" y="50.21" fill="#ffbd54" rx="2.4"></rect><path fill="#ffbd54" d="m242.11 161.21 12.6 27.14a2.25 2.25 0 0 0 4.1-.06q5.81-13.57 11.63-27.14a2.25 2.25 0 0 0-2.06-3.13h-24.24a2.24 2.24 0 0 0-2.03 3.19Z"></path><path fill="#fff" d="M304.23 150.78a46.39 46.39 0 1 1 46.39-46.39 46.44 46.44 0 0 1-46.39 46.39Zm0-85.44a39.05 39.05 0 1 0 39 39.05 39.1 39.1 0 0 0-39-39.05Z"></path><path fill="#fff" d="M304.23 150.78a3.67 3.67 0 0 1-3.67-3.67V61.67a3.67 3.67 0 0 1 7.34 0v85.44a3.67 3.67 0 0 1-3.67 3.67Z"></path><path fill="#fff" d="M337.41 135a3.63 3.63 0 0 1-2.59-1.07L303.93 103l-30.74 30.75a3.67 3.67 0 0 1-5.19-5.19l33.34-33.34a3.68 3.68 0 0 1 5.19 0L340 128.7a3.67 3.67 0 0 1-2.6 6.26Z"></path><path fill="#ff7769" d="m172 122.92 10.78 3.68a2.38 2.38 0 0 1 0 4.51L172 134.79a2.4 2.4 0 0 0-1.49 1.49l-3.68 10.78a2.38 2.38 0 0 1-4.5 0l-3.69-10.78a2.36 2.36 0 0 0-1.48-1.49l-10.78-3.68a2.38 2.38 0 0 1 0-4.51l10.78-3.68a2.34 2.34 0 0 0 1.48-1.48l3.69-10.78a2.38 2.38 0 0 1 4.5 0l3.68 10.78a2.38 2.38 0 0 0 1.49 1.48zm284.87 16.19 7.88 2.69a1.74 1.74 0 0 1 0 3.29l-7.88 2.69a1.71 1.71 0 0 0-1.08 1.08l-2.7 7.88a1.74 1.74 0 0 1-3.29 0l-2.69-7.88a1.71 1.71 0 0 0-1.08-1.08l-7.88-2.69a1.74 1.74 0 0 1 0-3.29l7.88-2.69a1.75 1.75 0 0 0 1.08-1.09l2.69-7.88a1.74 1.74 0 0 1 3.29 0l2.7 7.88a1.75 1.75 0 0 0 1.08 1.09zM139.3 436.05l10.78 3.68a2.38 2.38 0 0 1 0 4.51l-10.78 3.68a2.38 2.38 0 0 0-1.49 1.48l-3.68 10.78a2.38 2.38 0 0 1-4.5 0l-3.69-10.78a2.34 2.34 0 0 0-1.48-1.48l-10.78-3.68a2.38 2.38 0 0 1 0-4.51l10.78-3.68a2.36 2.36 0 0 0 1.48-1.49l3.69-10.78a2.38 2.38 0 0 1 4.5 0l3.68 10.78a2.4 2.4 0 0 0 1.49 1.49zM90.07 76.39 98 79.08a1.74 1.74 0 0 1 0 3.29l-7.88 2.69A1.71 1.71 0 0 0 89 86.14L86.3 94a1.74 1.74 0 0 1-3.3 0l-2.69-7.88a1.75 1.75 0 0 0-1.09-1.08l-7.88-2.69a1.74 1.74 0 0 1 0-3.29l7.88-2.69a1.78 1.78 0 0 0 1.09-1.09L83 67.42a1.74 1.74 0 0 1 3.29 0L89 75.3a1.75 1.75 0 0 0 1.07 1.09z"></path></svg>